<svg width="27" height="27" viewBox="0 0 27 27" fill="none" xmlns="http://www.w3.org/2000/svg">
<path opacity="0.4" d="M26.6667 13.3333C26.6667 20.6971 20.6971 26.6667 13.3333 26.6667C5.96954 26.6667 0 20.6971 0 13.3333C0 5.96954 5.96954 0 13.3333 0C20.6971 0 26.6667 5.96954 26.6667 13.3333Z" fill="#F9FDFF"/>
<path d="M13.333 7C13.8853 7 14.333 7.44772 14.333 8V12.333H18.666C19.2183 12.333 19.666 12.7807 19.666 13.333C19.666 13.8853 19.2183 14.333 18.666 14.333H14.333V18.666C14.333 19.2183 13.8853 19.666 13.333 19.666C12.7807 19.666 12.333 19.2183 12.333 18.666V14.333H8C7.44771 14.333 7 13.8853 7 13.333C7 12.7807 7.44771 12.333 8 12.333H12.333V8C12.333 7.44772 12.7807 7 13.333 7Z" fill="#F9FDFF"/>
</svg>
