<svg width="79" height="72" viewBox="0 0 79 72" fill="none" xmlns="http://www.w3.org/2000/svg">
<path fill-rule="evenodd" clip-rule="evenodd" d="M55.7554 16.65C55.7554 25.8455 48.301 33.3 39.1054 33.3C29.9099 33.3 22.4554 25.8455 22.4554 16.65C22.4554 7.45446 29.9099 0 39.1054 0C48.301 0 55.7554 7.45446 55.7554 16.65ZM50.2054 16.65C50.2054 22.7804 45.2358 27.75 39.1054 27.75C32.9751 27.75 28.0054 22.7804 28.0054 16.65C28.0054 10.5196 32.9751 5.55 39.1054 5.55C45.2358 5.55 50.2054 10.5196 50.2054 16.65Z" fill="#4F378A"/>
<path d="M39.1054 41.625C21.139 41.625 5.83115 52.2488 0 67.1329C1.42051 68.5435 2.91691 69.8777 4.48254 71.129C8.8247 57.4638 22.4463 47.175 39.1054 47.175C55.7645 47.175 69.3862 57.4639 73.7283 71.129C75.2939 69.8778 76.7903 68.5435 78.2109 67.133C72.3797 52.2489 57.0719 41.625 39.1054 41.625Z" fill="#4F378A"/>
</svg>
