<svg width="20" height="17" viewBox="0 0 20 17" fill="none" xmlns="http://www.w3.org/2000/svg">
<path d="M11.4286 0C9.15529 0 6.97511 0.895533 5.36766 2.48959C3.7602 4.08365 2.85714 6.24566 2.85714 8.5H0L3.80952 12.2778L7.61905 8.5H4.7619C4.7619 6.74662 5.46428 5.06506 6.71453 3.82524C7.96477 2.58541 9.66046 1.88889 11.4286 1.88889C13.1967 1.88889 14.8924 2.58541 16.1426 3.82524C17.3929 5.06506 18.0952 6.74662 18.0952 8.5C18.0952 10.2534 17.3929 11.9349 16.1426 13.1748C14.8924 14.4146 13.1967 15.1111 11.4286 15.1111C10 15.1111 8.65714 14.6389 7.5619 13.8833L6.19048 15.2433C7.65714 16.3389 9.46667 17 11.4286 17C13.7019 17 15.882 16.1045 17.4895 14.5104C19.0969 12.9163 20 10.7543 20 8.5C20 6.24566 19.0969 4.08365 17.4895 2.48959C15.882 0.895533 13.7019 0 11.4286 0ZM13.3333 8.5C13.3333 7.99904 13.1327 7.51859 12.7754 7.16435C12.4182 6.81012 11.9337 6.61111 11.4286 6.61111C10.9234 6.61111 10.4389 6.81012 10.0817 7.16435C9.72449 7.51859 9.52381 7.99904 9.52381 8.5C9.52381 9.00096 9.72449 9.48141 10.0817 9.83565C10.4389 10.1899 10.9234 10.3889 11.4286 10.3889C11.9337 10.3889 12.4182 10.1899 12.7754 9.83565C13.1327 9.48141 13.3333 9.00096 13.3333 8.5Z" fill="#636363"/>
</svg>
