<svg width="42" height="42" viewBox="0 0 42 42" fill="none" xmlns="http://www.w3.org/2000/svg">
<g clip-path="url(#clip0_587_11123)">
<path d="M10.2324 23.2122C9.40884 23.2122 8.7912 22.5948 8.7912 21.7716C8.7912 20.9691 9.40884 20.3517 10.2324 20.3517H19.5588V7.902C19.5588 7.09945 20.1766 6.48211 20.9794 6.48211C21.7823 6.48211 22.4206 7.09945 22.4206 7.902V21.7716C22.4206 22.5948 21.7823 23.2122 20.9794 23.2122H10.2324ZM21 41.9793C32.4883 41.9793 42 32.4517 42 20.9896C42 9.50709 32.4678 0 20.9794 0C9.51178 0 0 9.50709 0 20.9896C0 32.4517 9.53237 41.9793 21 41.9793Z" fill="#17BDDE"/>
</g>
<defs>
<clipPath id="clip0_587_11123">
<rect width="42" height="42" fill="white"/>
</clipPath>
</defs>
</svg>
