<svg width="28" height="24" viewBox="0 0 28 24" fill="none" xmlns="http://www.w3.org/2000/svg">
<path d="M0 1.87142C0 2.8126 0.766074 3.57867 1.69631 3.57867C2.29823 3.57867 2.84542 3.25035 3.12996 2.75787H24.4597C24.7442 3.25035 25.2914 3.57867 25.8934 3.57867C26.8236 3.57867 27.5897 2.8126 27.5897 1.87142C27.5897 0.941182 26.8236 0.17511 25.8934 0.17511C25.2914 0.17511 24.7442 0.514371 24.4597 0.995907H3.12996C2.84542 0.514371 2.29823 0.17511 1.69631 0.17511C0.766074 0.17511 0 0.941182 0 1.87142Z" fill="white"/>
<path d="M4.82585 23.1683H12.2677C12.7164 23.1683 13.0448 22.8399 13.0448 22.3803V0.798906C13.0448 0.339261 12.7164 0 12.2677 0H4.82585C4.37714 0 4.04883 0.339261 4.04883 0.798906V22.3803C4.04883 22.8399 4.37714 23.1683 4.82585 23.1683ZM15.321 23.1683H22.7629C23.2117 23.1683 23.5399 22.8399 23.5399 22.3803V0.798906C23.5399 0.339261 23.2117 0 22.7629 0H15.321C14.8724 0 14.544 0.339261 14.544 0.798906V22.3803C14.544 22.8399 14.8724 23.1683 15.321 23.1683Z" fill="white"/>
</svg>
