<svg width="28" height="28" viewBox="0 0 28 28" fill="none" xmlns="http://www.w3.org/2000/svg">
<path d="M23.625 22.7502C24.1082 22.7502 24.5 23.142 24.5 23.6252C24.4999 24.1084 24.1082 24.5002 23.625 24.5002H13.417C12.9338 24.5002 12.5421 24.1084 12.542 23.6252C12.542 23.142 12.9337 22.7502 13.417 22.7502H23.625ZM14.998 7.28049C15.5446 8.30926 16.3487 9.60864 17.3701 10.6301C18.3916 11.6515 19.6909 12.4556 20.7197 13.0022L14.0703 19.6516C13.6578 20.064 13.1224 20.3317 12.5449 20.4143L8.54004 20.9865C7.65008 21.1137 6.88653 20.3501 7.01367 19.4602L7.58594 15.4553C7.66849 14.8778 7.93618 14.3424 8.34863 13.9299L14.998 7.28049ZM17.9893 4.29025C19.0425 3.23701 20.7505 3.23701 21.8037 4.29025L23.71 6.19748C24.7631 7.25073 24.7632 8.95774 23.71 10.011L22.0195 11.7024C21.8868 11.6366 21.7473 11.5647 21.6025 11.4885C20.6279 10.9754 19.4706 10.256 18.6074 9.39279C17.7442 8.52961 17.0248 7.37232 16.5117 6.39767C16.4355 6.25289 16.3636 6.1134 16.2979 5.98068L17.9893 4.29025Z" fill="white"/>
</svg>
