<svg width="20" height="20" viewBox="0 0 20 20" fill="none" xmlns="http://www.w3.org/2000/svg">
<g clip-path="url(#clip0_587_11300)">
<path d="M0 9.99513C0 12.816 1.18164 15.3636 3.06641 17.1694C3.18359 17.2865 3.32032 17.2865 3.42773 17.1596L3.88672 16.6521C3.99414 16.5251 3.98438 16.408 3.86718 16.2909C2.22657 14.6998 1.19141 12.4548 1.19141 9.99513C1.19141 5.19278 5.17578 1.20059 10 1.20059C14.8243 1.20059 18.8086 5.19278 18.8086 9.99513C18.8086 12.4548 17.7637 14.6998 16.1231 16.2909C16.0058 16.408 15.9961 16.5251 16.1035 16.6618L16.5625 17.1694C16.6699 17.2962 16.7968 17.2962 16.9141 17.1791C18.8086 15.3733 20 12.816 20 9.99513C20 4.51928 15.5176 0 10 0C4.48242 0 0 4.51928 0 9.99513Z" fill="#636363"/>
<path d="M2.8418 9.99511C2.8418 11.9668 3.65234 13.7335 4.95117 15.0317C5.06836 15.1586 5.21484 15.1488 5.32226 15.0317L5.77148 14.5339C5.89843 14.407 5.87891 14.2801 5.76171 14.1532C4.69726 13.0893 4.04296 11.6154 4.04296 9.99511C4.04296 6.73498 6.72851 4.04097 10 4.04097C13.2715 4.04097 15.957 6.73498 15.957 9.99511C15.957 11.6154 15.293 13.0991 14.2285 14.1532C14.1113 14.2801 14.0918 14.407 14.2187 14.5339L14.6777 15.0415C14.7852 15.1586 14.9218 15.1683 15.0391 15.0415C16.3477 13.7433 17.1582 11.9668 17.1582 9.99511C17.1582 6.07123 13.9453 2.84039 10 2.84039C6.05468 2.84039 2.8418 6.07123 2.8418 9.99511Z" fill="#636363"/>
<path d="M5.68359 9.99515C5.68359 11.1079 6.12305 12.123 6.83594 12.8844C6.94336 13.0015 7.08008 13.0015 7.19727 12.8746L7.66602 12.3866C7.7832 12.2695 7.77344 12.1425 7.68555 12.0157C7.1875 11.4886 6.88477 10.7663 6.88477 9.99515C6.88477 8.29676 8.30079 6.88144 10 6.88144C11.6993 6.88144 13.1153 8.29676 13.1153 9.99515C13.1153 10.776 12.8125 11.4983 12.3047 12.0254C12.207 12.1523 12.1973 12.2792 12.3243 12.3963L12.793 12.8844C12.9102 13.0113 13.0371 13.0113 13.1445 12.8844C13.8769 12.1328 14.3164 11.1177 14.3164 9.99515C14.3164 7.63302 12.3731 5.68085 10 5.68085C7.62695 5.68085 5.68359 7.63302 5.68359 9.99515Z" fill="#636363"/>
<path d="M4.02249 19.6584H15.9561C16.4151 19.6584 16.5909 19.1801 16.3076 18.858L10.4092 12.1913C10.1846 11.9375 9.79398 11.9375 9.56939 12.1913L3.6807 18.858C3.38774 19.1899 3.56351 19.6584 4.02249 19.6584Z" fill="#636363"/>
</g>
<defs>
<clipPath id="clip0_587_11300">
<rect width="20" height="20" fill="white"/>
</clipPath>
</defs>
</svg>
