<svg width="23" height="22" viewBox="0 0 23 22" fill="none" xmlns="http://www.w3.org/2000/svg">
<path d="M4.078 18.9517C8.55194 18.9517 10.9749 15.1514 15.1875 15.1514C16.1727 15.1514 17.0574 15.3726 18.083 15.9557C18.5052 16.197 18.9074 16.0361 19.1185 15.7345C19.3699 15.3726 19.3497 14.8297 18.7867 14.4979C17.6506 13.8444 16.4744 13.5327 15.1875 13.5327C10.6331 13.5327 8.23022 17.3331 4.078 17.3331C3.08268 17.3331 2.20799 17.1119 1.1825 16.5187C0.760244 16.2775 0.348039 16.4383 0.146963 16.7499C-0.094328 17.1119 -0.0742207 17.6648 0.478738 17.9765C1.61482 18.6401 2.79111 18.9517 4.078 18.9517Z" fill="#E5E5E5"/>
<path d="M4.08874 13.5626C8.56268 13.5626 10.9856 9.76221 15.1982 9.76221C16.1835 9.76221 17.0682 9.98338 18.0937 10.5665C18.516 10.8078 18.9181 10.647 19.1292 10.3453C19.3806 9.98338 19.3604 9.44049 18.7975 9.10873C17.6614 8.45522 16.4851 8.14355 15.1982 8.14355C10.6438 8.14355 8.24095 11.9439 4.08874 11.9439C3.09341 11.9439 2.21873 11.7126 1.19325 11.1296C0.770987 10.8882 0.358781 11.0491 0.157705 11.3608C-0.0835858 11.7227 -0.0634783 12.2656 0.48948 12.5874C1.62556 13.2408 2.80185 13.5626 4.08874 13.5626Z" fill="#E5E5E5"/>
<path d="M4.078 8.16382C8.55194 8.16382 10.9749 4.37355 15.1875 4.37355C16.1727 4.37355 17.0574 4.59473 18.083 5.17785C18.5052 5.41914 18.9074 5.25828 19.1185 4.95666C19.3699 4.59473 19.3497 4.05182 18.7867 3.72005C17.6506 3.06655 16.4744 2.75488 15.1875 2.75488C10.6331 2.75488 8.23022 6.54517 4.078 6.54517C3.08268 6.54517 2.20799 6.32398 1.1825 5.74086C0.760244 5.49957 0.348039 5.66043 0.146963 5.9721C-0.094328 6.33403 -0.0742207 6.87693 0.478738 7.19866C1.61482 7.85215 2.79111 8.16382 4.078 8.16382Z" fill="#E5E5E5"/>
<path d="M17.2792 21.7063C20.4462 21.7063 22.9998 19.2029 22.9998 16.0762C22.9998 14.4173 22.2055 12.8791 21.6425 11.8033L19.4005 7.63099C18.938 6.77642 18.2745 6.26367 17.2792 6.26367C16.2839 6.26367 15.6203 6.77642 15.1578 7.63099L12.9259 11.8133C12.3629 12.8791 11.5586 14.4173 11.5586 16.0762C11.5586 19.2029 14.1223 21.7063 17.2792 21.7063Z" fill="#C7C7C7"/>
<path d="M17.2778 20.3285C19.7008 20.3285 21.6311 18.4384 21.6311 16.0758C21.6311 14.7687 20.9776 13.492 20.4246 12.4564L18.1826 8.28407C17.9413 7.83165 17.7202 7.64062 17.2778 7.64062C16.8253 7.64062 16.6142 7.83165 16.373 8.28407L14.141 12.4564C13.5881 13.492 12.9346 14.7687 12.9346 16.0758C12.9346 18.4384 14.8649 20.3285 17.2778 20.3285ZM17.2778 19.0014C15.5988 19.0014 14.2616 17.7145 14.2616 16.0758C14.2616 15.0804 14.7744 14.1152 15.3173 13.0797L17.1873 9.61115C17.2376 9.5106 17.3381 9.5106 17.3884 9.61115L19.2282 13.0797C19.7811 14.1152 20.304 15.0804 20.304 16.0758C20.304 17.7145 18.9568 19.0014 17.2778 19.0014Z" fill="#E5E5E5"/>
</svg>
