<svg width="26" height="29" viewBox="0 0 26 29" fill="none" xmlns="http://www.w3.org/2000/svg">
<g clip-path="url(#clip0_898_11646)">
<path d="M6.42188 3.10547C2.84766 3.10547 0 5.73047 0 9.07031C0 12.7734 2.19141 13.6875 2.78906 19.9102C2.82422 20.2852 3.04688 20.5547 3.45703 20.5547H9.39844C9.80859 20.5547 10.0312 20.2852 10.0664 19.9102C10.6641 13.6875 12.8555 12.7734 12.8555 9.07031C12.8555 5.73047 10.0078 3.10547 6.42188 3.10547ZM3.43359 22.7812H9.43359C9.79688 22.7812 10.1016 22.5 10.1016 22.125C10.1016 21.7383 9.79688 21.457 9.43359 21.457H3.43359C3.07031 21.457 2.77734 21.75 2.77734 22.125C2.77734 22.4883 3.07031 22.7812 3.43359 22.7812ZM6.44531 25.7109C7.98047 25.7109 9.31641 24.8789 9.33984 23.6836H3.55078C3.5625 24.8789 4.875 25.7109 6.44531 25.7109Z" fill="#C7A000"/>
<path d="M16.5117 1.37109C12.3633 1.37109 9.10547 4.38281 9.10547 8.21484C9.10547 12.457 11.6484 13.5117 12.3516 20.8359C12.3984 21.2461 12.6094 21.5039 13.0547 21.5039H19.9688C20.4023 21.5039 20.625 21.2461 20.6602 20.8359C21.3633 13.5117 23.918 12.457 23.918 8.21484C23.918 4.38281 20.6484 1.37109 16.5117 1.37109ZM13.0195 23.8945H20.0039C20.3906 23.8945 20.6836 23.6133 20.6836 23.2266C20.6836 22.8398 20.3906 22.5586 20.0039 22.5586H13.0195C12.6328 22.5586 12.3516 22.8398 12.3516 23.2266C12.3516 23.6133 12.6328 23.8945 13.0195 23.8945ZM16.5117 27.1055C18.2344 27.1055 19.6992 26.2383 19.7812 24.9492H13.2422C13.3125 26.2383 14.7773 27.1055 16.5117 27.1055Z" fill="#FFCD00"/>
</g>
<defs>
<clipPath id="clip0_898_11646">
<rect width="25.2773" height="28.4883" fill="white"/>
</clipPath>
</defs>
</svg>
