<svg width="31" height="26" viewBox="0 0 31 26" fill="none" xmlns="http://www.w3.org/2000/svg">
<path d="M6.48816 1.58069C2.87705 1.58069 0 4.23278 0 7.60709C0 11.3484 2.21403 12.2719 2.81784 18.5588C2.85337 18.9377 3.07833 19.21 3.49271 19.21H9.49544C9.90982 19.21 10.1347 18.9377 10.1703 18.5588C10.7742 12.2719 12.9882 11.3484 12.9882 7.60709C12.9882 4.23278 10.1111 1.58069 6.48816 1.58069ZM3.46903 21.4595H9.53095C9.89799 21.4595 10.2059 21.1754 10.2059 20.7965C10.2059 20.4058 9.89799 20.1216 9.53095 20.1216H3.46903C3.102 20.1216 2.806 20.4176 2.806 20.7965C2.806 21.1636 3.102 21.4595 3.46903 21.4595ZM6.51183 24.4194C8.06283 24.4194 9.41256 23.5788 9.43623 22.3712H3.58743C3.59927 23.5788 4.92531 24.4194 6.51183 24.4194Z" fill="#C7A000"/>
<path d="M24.4413 1.58069C20.8302 1.58069 17.9531 4.23278 17.9531 7.60709C17.9531 11.3484 20.1672 12.2719 20.771 18.5588C20.8065 18.9377 21.0315 19.21 21.4458 19.21H27.4486C27.8629 19.21 28.0879 18.9377 28.1234 18.5588C28.7273 12.2719 30.9413 11.3484 30.9413 7.60709C30.9413 4.23278 28.0642 1.58069 24.4413 1.58069ZM21.4222 21.4595H27.4841C27.8511 21.4595 28.159 21.1754 28.159 20.7965C28.159 20.4058 27.8511 20.1216 27.4841 20.1216H21.4222C21.0551 20.1216 20.7591 20.4176 20.7591 20.7965C20.7591 21.1636 21.0551 21.4595 21.4222 21.4595ZM24.465 24.4194C26.016 24.4194 27.3657 23.5788 27.3894 22.3712H21.5406C21.5524 23.5788 22.8784 24.4194 24.465 24.4194Z" fill="#C7A000"/>
<path d="M15.4709 0C11.2797 0 7.98828 3.0428 7.98828 6.91438C7.98828 11.2003 10.5575 12.2659 11.2679 19.6657C11.3152 20.0801 11.5284 20.3406 11.9783 20.3406H18.9637C19.4017 20.3406 19.6267 20.0801 19.6623 19.6657C20.3726 12.2659 22.9537 11.2003 22.9537 6.91438C22.9537 3.0428 19.6503 0 15.4709 0ZM11.9427 22.7559H18.9992C19.3899 22.7559 19.6859 22.4718 19.6859 22.0811C19.6859 21.6903 19.3899 21.4062 18.9992 21.4062H11.9427C11.552 21.4062 11.2679 21.6903 11.2679 22.0811C11.2679 22.4718 11.552 22.7559 11.9427 22.7559ZM15.4709 26C17.2114 26 18.6913 25.1238 18.7742 23.8214H12.1677C12.2387 25.1238 13.7186 26 15.4709 26Z" fill="#FFCD00"/>
</svg>
