<svg width="15" height="27" viewBox="0 0 15 27" fill="none" xmlns="http://www.w3.org/2000/svg">
<g clip-path="url(#clip0_898_657)">
<path d="M3.95831 23.0218H11.0547C11.4247 23.0218 11.705 22.7279 11.705 22.355C11.705 21.9933 11.4247 21.6995 11.0547 21.6995H3.95831C3.58836 21.6995 3.29688 21.9933 3.29688 22.355C3.29688 22.7279 3.58836 23.0218 3.95831 23.0218ZM7.50091 26.2993C9.23858 26.2993 10.6848 25.4404 10.7969 24.1406H4.21616C4.29463 25.4404 5.75203 26.2993 7.50091 26.2993Z" fill="white"/>
<path d="M0 6.96191C0 11.3018 2.83632 12.3754 3.29596 19.9137C3.31838 20.3206 3.56502 20.5805 3.99103 20.5805H11.0089C11.4461 20.5805 11.6816 20.3206 11.7152 19.9137C12.1749 12.3754 15 11.3018 15 6.96191C15 3.06279 11.6929 0 7.49999 0C3.30717 0 0 3.06279 0 6.96191Z" fill="white"/>
</g>
<defs>
<clipPath id="clip0_898_657">
<rect width="15" height="27" fill="white"/>
</clipPath>
</defs>
</svg>
