<svg width="19" height="19" viewBox="0 0 19 19" fill="none" xmlns="http://www.w3.org/2000/svg">
<path d="M3.24064 18.9794H15.7594C17.9267 18.9794 19 17.9072 19 15.7834V3.19587C19 1.07216 17.9267 0 15.7594 0H3.24064C1.08365 0 0 1.06185 0 3.19587V15.7834C0 17.9175 1.08365 18.9794 3.24064 18.9794ZM3.26127 17.3195C2.22923 17.3195 1.6616 16.7731 1.6616 15.701V3.27834C1.6616 2.20618 2.22923 1.65979 3.26127 1.65979H15.7388C16.7604 1.65979 17.3384 2.20618 17.3384 3.27834V15.701C17.3384 16.7731 16.7604 17.3195 15.7388 17.3195H3.26127Z" fill="#636363"/>
<path d="M3.77645 8.82465C3.91062 8.97931 4.14799 8.96902 4.3028 8.80407C5.64446 7.36078 7.46087 6.58759 9.50435 6.58759C11.5581 6.58759 13.3848 7.36078 14.7368 8.81436C14.8813 8.95872 15.1083 8.96902 15.2425 8.81436L16.0062 8.02058C16.1301 7.89686 16.1404 7.7216 16.0372 7.57728C14.6439 5.86594 12.0535 4.7113 9.50435 4.7113C6.96549 4.7113 4.37504 5.86594 2.98177 7.57728C2.86825 7.7216 2.88889 7.89686 3.00242 8.02058L3.77645 8.82465Z" fill="#636363"/>
<path d="M6.13151 11.1753C6.28631 11.3402 6.49272 11.33 6.66817 11.1547C7.35964 10.3815 8.45362 9.88668 9.50633 9.89697C10.559 9.88668 11.653 10.3815 12.3754 11.165C12.5302 11.3402 12.7366 11.3402 12.8811 11.1753L13.7584 10.3094C13.8822 10.1856 13.9029 10.0001 13.779 9.866C12.8398 8.73202 11.1988 8.01038 9.50633 8.01038C7.82406 8.01038 6.18311 8.73202 5.24394 9.866C5.1201 10.0104 5.13042 10.1753 5.2749 10.3094L6.13151 11.1753Z" fill="#636363"/>
<path d="M9.50405 14.2886C9.65887 14.2886 9.762 14.2268 10.02 14L11.403 12.67C11.5165 12.5463 11.5372 12.3711 11.434 12.2371C11.0211 11.6803 10.2574 11.3093 9.50405 11.3093C8.74031 11.3093 7.99723 11.6907 7.56377 12.2887C7.47089 12.4021 7.50185 12.5463 7.6257 12.67L8.99836 14C9.24601 14.2165 9.34923 14.2886 9.50405 14.2886Z" fill="#636363"/>
</svg>
