<svg width="29" height="29" viewBox="0 0 29 29" fill="none" xmlns="http://www.w3.org/2000/svg">
<circle cx="14.335" cy="14.335" r="13.835" stroke="white"/>
<path d="M14.5 19C15.3284 19 16 19.6716 16 20.5C16 21.3284 15.3284 22 14.5 22C13.6716 22 13 21.3284 13 20.5C13 19.6716 13.6716 19 14.5 19ZM14.5 13C15.3284 13 16 13.6716 16 14.5C16 15.3284 15.3284 16 14.5 16C13.6716 16 13 15.3284 13 14.5C13 13.6716 13.6716 13 14.5 13ZM14.5 7C15.3284 7 16 7.67157 16 8.5C16 9.32843 15.3284 10 14.5 10C13.6716 10 13 9.32843 13 8.5C13 7.67157 13.6716 7 14.5 7Z" fill="#F9FDFF"/>
</svg>
