<svg width="28" height="28" viewBox="0 0 28 28" fill="none" xmlns="http://www.w3.org/2000/svg">
<g clip-path="url(#clip0_898_3589)">
<path d="M1.14403 9.11917C1.90194 9.11917 2.30235 8.69038 2.30235 7.94714V4.57399C2.30235 3.08752 3.08887 2.32999 4.51889 2.32999H7.97957C8.7375 2.32999 9.1522 1.91549 9.1522 1.17225C9.1522 0.429013 8.7375 0.0288086 7.97957 0.0288086H4.4903C1.50153 0.0288086 0 1.50099 0 4.44535V7.94714C0 8.69038 0.414709 9.11917 1.14403 9.11917ZM26.8417 9.11917C27.5996 9.11917 28 8.69038 28 7.94714V4.44535C28 1.50099 26.4984 0.0288086 23.5097 0.0288086H20.0061C19.2626 0.0288086 18.8478 0.429013 18.8478 1.17225C18.8478 1.91549 19.2626 2.32999 20.0061 2.32999H23.4669C24.8825 2.32999 25.6977 3.08752 25.6977 4.57399V7.94714C25.6977 8.69038 26.1123 9.11917 26.8417 9.11917ZM4.4903 28.0002H7.97957C8.7375 28.0002 9.1522 27.5858 9.1522 26.8568C9.1522 26.1136 8.7375 25.6991 7.97957 25.6991H4.51889C3.08887 25.6991 2.30235 24.9415 2.30235 23.4551V20.0819C2.30235 19.3245 1.88765 18.9099 1.14403 18.9099C0.400409 18.9099 0 19.3245 0 20.0819V23.5694C0 26.5281 1.50153 28.0002 4.4903 28.0002ZM20.0061 28.0002H23.5097C26.4984 28.0002 28 26.5138 28 23.5694V20.0819C28 19.3245 27.5853 18.9099 26.8417 18.9099C26.0981 18.9099 25.6977 19.3245 25.6977 20.0819V23.4551C25.6977 24.9415 24.8825 25.6991 23.4669 25.6991H20.0061C19.2626 25.6991 18.8478 26.1136 18.8478 26.8568C18.8478 27.5858 19.2626 28.0002 20.0061 28.0002Z" fill="black" fill-opacity="0.85"/>
<path d="M7.76593 20.8677H12.7424C13.1 20.8677 13.3716 20.5961 13.3716 20.2388V15.2648C13.3716 14.9075 13.1 14.6359 12.7424 14.6359H7.76593C7.40842 14.6359 7.13672 14.9075 7.13672 15.2648V20.2388C7.13672 20.5961 7.40842 20.8677 7.76593 20.8677ZM8.38084 19.6241V15.8794H12.1275V19.6241H8.38084ZM9.46766 18.5236H11.0407V16.9657H9.46766V18.5236ZM7.76593 13.3924H12.7424C13.1 13.3924 13.3716 13.1208 13.3716 12.7779V7.78954C13.3716 7.44651 13.1 7.16064 12.7424 7.16064H7.76593C7.40842 7.16064 7.13672 7.44651 7.13672 7.78954V12.7779C7.13672 13.1208 7.40842 13.3924 7.76593 13.3924ZM8.38084 12.1489V8.40414H12.1275V12.1489H8.38084ZM9.46766 11.0626H11.0407V9.49041H9.46766V11.0626ZM15.2307 13.3924H20.2072C20.5648 13.3924 20.8364 13.1208 20.8364 12.7779V7.78954C20.8364 7.44651 20.5648 7.16064 20.2072 7.16064H15.2307C14.8732 7.16064 14.6014 7.44651 14.6014 7.78954V12.7779C14.6014 13.1208 14.8732 13.3924 15.2307 13.3924ZM15.8456 12.1489V8.40414H19.5923V12.1489H15.8456ZM16.9467 11.0626H18.5055V9.49041H16.9467V11.0626ZM14.7874 20.6818H16.3461V19.1239H14.7874V20.6818ZM19.0917 20.6818H20.6505V19.1239H19.0917V20.6818ZM16.9324 18.5236H18.5055V16.9657H16.9324V18.5236ZM14.7874 16.3654H16.3461V14.8074H14.7874V16.3654ZM19.0917 16.3654H20.6505V14.8074H19.0917V16.3654Z" fill="black" fill-opacity="0.85"/>
</g>
<defs>
<clipPath id="clip0_898_3589">
<rect width="28" height="28" fill="white"/>
</clipPath>
</defs>
</svg>
