<svg width="18" height="20" viewBox="0 0 18 20" fill="none" xmlns="http://www.w3.org/2000/svg">
<path d="M10.4786 18.4297L15.5226 15.5017C16.061 15.1892 16.3297 15.0329 16.5255 14.8142C16.6988 14.6208 16.8298 14.3929 16.9098 14.1454C17 13.8662 17 13.5543 17 12.9321V7.06772C17 6.44554 17 6.13362 16.9098 5.85448C16.8298 5.6069 16.6988 5.37886 16.5255 5.18541C16.3306 4.96772 16.0625 4.8121 15.5287 4.50224L10.4777 1.57028C9.93922 1.25772 9.67053 1.10176 9.3843 1.04059C9.13105 0.98647 8.86922 0.98647 8.61596 1.04059C8.32974 1.10176 8.06015 1.25772 7.5217 1.57028L2.47673 4.49874C1.9389 4.81093 1.6702 4.9669 1.47452 5.18541C1.30127 5.37886 1.17043 5.6069 1.09043 5.85448C1 6.13428 1 6.447 1 7.07212V12.9279C1 13.5531 1 13.8656 1.09043 14.1454C1.17043 14.3929 1.30127 14.6208 1.47452 14.8142C1.67032 15.0329 1.93922 15.1892 2.47767 15.5017L7.5217 18.4297C8.06014 18.7422 8.32974 18.8982 8.61596 18.9594C8.86922 19.0135 9.13105 19.0135 9.3843 18.9594C9.67053 18.8982 9.94013 18.7422 10.4786 18.4297Z" stroke="#636363" stroke-width="2" stroke-linecap="round" stroke-linejoin="round"/>
<path d="M6.22869 9.9999C6.22869 11.5387 7.46945 12.7862 9 12.7862C10.5306 12.7862 11.7713 11.5387 11.7713 9.9999C11.7713 8.46108 10.5306 7.21361 9 7.21361C7.46945 7.21361 6.22869 8.46108 6.22869 9.9999Z" stroke="#636363" stroke-width="2" stroke-linecap="round" stroke-linejoin="round"/>
</svg>
