<svg width="27" height="19" viewBox="0 0 27 19" fill="none" xmlns="http://www.w3.org/2000/svg">
<g clip-path="url(#clip0_898_12594)">
<path d="M2.72896 19H13.271C15.0962 19 16 18.0971 16 16.3086V5.70859C16 3.92021 15.0962 3.01733 13.271 3.01733H2.72896C0.912549 3.01733 0 3.91153 0 5.70859V16.3086C0 18.1057 0.912549 19 2.72896 19ZM2.74633 17.6022C1.87724 17.6022 1.39924 17.1421 1.39924 16.2392V5.77804C1.39924 4.87517 1.87724 4.41506 2.74633 4.41506H13.2537C14.114 4.41506 14.6008 4.87517 14.6008 5.77804V16.2392C14.6008 17.1421 14.114 17.6022 13.2537 17.6022H2.74633Z" fill="#C7A000"/>
<path d="M8.00417 15.5534C10.5332 15.5534 12.5582 13.5219 12.5582 10.9957C12.5582 8.46933 10.5332 6.43787 8.00417 6.43787C5.4664 6.43787 3.44141 8.46933 3.44141 10.9957C3.44141 13.5219 5.4664 15.5534 8.00417 15.5534ZM5.84011 12.0114C5.28389 12.0114 4.82327 11.5513 4.82327 10.9957C4.82327 10.4401 5.28389 9.97992 5.84011 9.97992C6.40502 9.97992 6.85695 10.4401 6.85695 10.9957C6.85695 11.5513 6.40502 12.0114 5.84011 12.0114ZM10.1595 12.0114C9.60327 12.0114 9.14265 11.5513 9.14265 10.9957C9.14265 10.4401 9.60327 9.97992 10.1595 9.97992C10.7157 9.97992 11.1763 10.4401 11.1763 10.9957C11.1763 11.5513 10.7157 12.0114 10.1595 12.0114Z" fill="#C7A000"/>
</g>
<g clip-path="url(#clip1_898_12594)">
<rect x="8" width="19" height="19" rx="3" fill="#595858"/>
<path d="M11.2406 19H23.7594C25.9267 19 27 17.9278 27 15.8041V3.2165C27 1.09279 25.9267 0.0206299 23.7594 0.0206299H11.2406C9.08365 0.0206299 8 1.08248 8 3.2165V15.8041C8 17.9381 9.08365 19 11.2406 19ZM11.2613 17.3401C10.2292 17.3401 9.6616 16.7938 9.6616 15.7216V3.29897C9.6616 2.22681 10.2292 1.68042 11.2613 1.68042H23.7387C24.7604 1.68042 25.3384 2.22681 25.3384 3.29897V15.7216C25.3384 16.7938 24.7604 17.3401 23.7387 17.3401H11.2613Z" fill="#FFCD00"/>
<path d="M17.5042 14.9072C20.5074 14.9072 22.9121 12.4948 22.9121 9.49485C22.9121 6.49483 20.5074 4.08246 17.5042 4.08246C14.4906 4.08246 12.0859 6.49483 12.0859 9.49485C12.0859 12.4948 14.4906 14.9072 17.5042 14.9072ZM14.9344 10.701C14.2739 10.701 13.7269 10.1546 13.7269 9.49485C13.7269 8.83506 14.2739 8.28864 14.9344 8.28864C15.6052 8.28864 16.1419 8.83506 16.1419 9.49485C16.1419 10.1546 15.6052 10.701 14.9344 10.701ZM20.0637 10.701C19.4032 10.701 18.8562 10.1546 18.8562 9.49485C18.8562 8.83506 19.4032 8.28864 20.0637 8.28864C20.7242 8.28864 21.2712 8.83506 21.2712 9.49485C21.2712 10.1546 20.7242 10.701 20.0637 10.701Z" fill="#FFCD00"/>
</g>
<defs>
<clipPath id="clip0_898_12594">
<rect width="16" height="16" fill="white" transform="translate(0 3)"/>
</clipPath>
<clipPath id="clip1_898_12594">
<rect x="8" width="19" height="19" rx="3" fill="white"/>
</clipPath>
</defs>
</svg>
