<svg width="35" height="17" viewBox="0 0 35 17" fill="none" xmlns="http://www.w3.org/2000/svg">
<g clip-path="url(#clip0_898_386)">
<path d="M2.72896 17H13.271C15.0962 17 16 16.0971 16 14.3086V3.70859C16 1.92021 15.0962 1.01733 13.271 1.01733H2.72896C0.912549 1.01733 0 1.91153 0 3.70859V14.3086C0 16.1057 0.912549 17 2.72896 17ZM2.74633 15.6022C1.87724 15.6022 1.39924 15.1421 1.39924 14.2392V3.77804C1.39924 2.87517 1.87724 2.41506 2.74633 2.41506H13.2537C14.114 2.41506 14.6008 2.87517 14.6008 3.77804V14.2392C14.6008 15.1421 14.114 15.6022 13.2537 15.6022H2.74633Z" fill="#EFEFEF"/>
<path d="M8.00417 13.5534C10.5332 13.5534 12.5582 11.5219 12.5582 8.99567C12.5582 6.46933 10.5332 4.43787 8.00417 4.43787C5.4664 4.43787 3.44141 6.46933 3.44141 8.99567C3.44141 11.5219 5.4664 13.5534 8.00417 13.5534ZM5.84011 10.0114C5.28389 10.0114 4.82327 9.55129 4.82327 8.99567C4.82327 8.44006 5.28389 7.97992 5.84011 7.97992C6.40502 7.97992 6.85695 8.44006 6.85695 8.99567C6.85695 9.55129 6.40502 10.0114 5.84011 10.0114ZM10.1595 10.0114C9.60327 10.0114 9.14265 9.55129 9.14265 8.99567C9.14265 8.44006 9.60327 7.97992 10.1595 7.97992C10.7157 7.97992 11.1763 8.44006 11.1763 8.99567C11.1763 9.55129 10.7157 10.0114 10.1595 10.0114Z" fill="#EFEFEF"/>
</g>
<g clip-path="url(#clip1_898_386)">
<path d="M21.729 17H32.271C34.0962 17 35 16.0971 35 14.3086V3.70859C35 1.92021 34.0962 1.01733 32.271 1.01733H21.729C19.9125 1.01733 19 1.91153 19 3.70859V14.3086C19 16.1057 19.9125 17 21.729 17ZM21.7463 15.6022C20.8772 15.6022 20.3992 15.1421 20.3992 14.2392V3.77804C20.3992 2.87517 20.8772 2.41506 21.7463 2.41506H32.2537C33.114 2.41506 33.6008 2.87517 33.6008 3.77804V14.2392C33.6008 15.1421 33.114 15.6022 32.2537 15.6022H21.7463Z" fill="#EFEFEF"/>
<path d="M27.0042 13.5534C29.5332 13.5534 31.5582 11.5219 31.5582 8.99567C31.5582 6.46933 29.5332 4.43787 27.0042 4.43787C24.4664 4.43787 22.4414 6.46933 22.4414 8.99567C22.4414 11.5219 24.4664 13.5534 27.0042 13.5534ZM24.8401 10.0114C24.2839 10.0114 23.8233 9.55129 23.8233 8.99567C23.8233 8.44006 24.2839 7.97992 24.8401 7.97992C25.405 7.97992 25.8569 8.44006 25.8569 8.99567C25.8569 9.55129 25.405 10.0114 24.8401 10.0114ZM29.1595 10.0114C28.6033 10.0114 28.1426 9.55129 28.1426 8.99567C28.1426 8.44006 28.6033 7.97992 29.1595 7.97992C29.7157 7.97992 30.1763 8.44006 30.1763 8.99567C30.1763 9.55129 29.7157 10.0114 29.1595 10.0114Z" fill="#EFEFEF"/>
</g>
<g clip-path="url(#clip2_898_386)">
<rect x="9" width="17" height="17" rx="3" fill="white"/>
<path d="M11.8995 17H23.1005C25.0397 17 26 16.0406 26 14.1405V2.8779C26 0.977738 25.0397 0.0184326 23.1005 0.0184326H11.8995C9.96958 0.0184326 9 0.968513 9 2.8779V14.1405C9 16.0499 9.96958 17 11.8995 17ZM11.918 15.5148C10.9946 15.5148 10.4867 15.026 10.4867 14.0667V2.95169C10.4867 1.99238 10.9946 1.50351 11.918 1.50351H23.082C23.9962 1.50351 24.5133 1.99238 24.5133 2.95169V14.0667C24.5133 15.026 23.9962 15.5148 23.082 15.5148H11.918Z" fill="white"/>
<path d="M17.5042 13.338C20.1913 13.338 22.3429 11.1795 22.3429 8.49538C22.3429 5.81114 20.1913 3.65271 17.5042 3.65271C14.8078 3.65271 12.6562 5.81114 12.6562 8.49538C12.6562 11.1795 14.8078 13.338 17.5042 13.338ZM15.2049 9.5746C14.6139 9.5746 14.1245 9.08572 14.1245 8.49538C14.1245 7.90504 14.6139 7.41614 15.2049 7.41614C15.8051 7.41614 16.2853 7.90504 16.2853 8.49538C16.2853 9.08572 15.8051 9.5746 15.2049 9.5746ZM19.7942 9.5746C19.2032 9.5746 18.7138 9.08572 18.7138 8.49538C18.7138 7.90504 19.2032 7.41614 19.7942 7.41614C20.3852 7.41614 20.8746 7.90504 20.8746 8.49538C20.8746 9.08572 20.3852 9.5746 19.7942 9.5746Z" fill="#FFCD00"/>
</g>
<defs>
<clipPath id="clip0_898_386">
<rect width="16" height="16" fill="white" transform="translate(0 1)"/>
</clipPath>
<clipPath id="clip1_898_386">
<rect width="16" height="16" fill="white" transform="translate(19 1)"/>
</clipPath>
<clipPath id="clip2_898_386">
<rect x="9" width="17" height="17" rx="3" fill="white"/>
</clipPath>
</defs>
</svg>
