<svg width="22" height="22" viewBox="0 0 22 22" fill="none" xmlns="http://www.w3.org/2000/svg">
<g clip-path="url(#clip0_898_1518)">
<path d="M3.75231 22H18.2477C20.7572 22 22 20.7585 22 18.2994V3.72435C22 1.26532 20.7572 0.0238647 18.2477 0.0238647H3.75231C1.25476 0.0238647 0 1.25338 0 3.72435V18.2994C0 20.7704 1.25476 22 3.75231 22ZM3.77621 20.078C2.58121 20.078 1.92396 19.4454 1.92396 18.204V3.81984C1.92396 2.57839 2.58121 1.94573 3.77621 1.94573H18.2238C19.4068 1.94573 20.0761 2.57839 20.0761 3.81984V18.204C20.0761 19.4454 19.4068 20.078 18.2238 20.078H3.77621Z" fill="#FFCD00"/>
<path d="M11.0062 17.2609C14.4836 17.2609 17.268 14.4677 17.268 10.994C17.268 7.52032 14.4836 4.72705 11.0062 4.72705C7.51678 4.72705 4.73242 7.52032 4.73242 10.994C4.73242 14.4677 7.51678 17.2609 11.0062 17.2609ZM8.03064 12.3907C7.26583 12.3907 6.63249 11.758 6.63249 10.994C6.63249 10.2301 7.26583 9.59737 8.03064 9.59737C8.80739 9.59737 9.42879 10.2301 9.42879 10.994C9.42879 11.758 8.80739 12.3907 8.03064 12.3907ZM13.9698 12.3907C13.205 12.3907 12.5716 11.758 12.5716 10.994C12.5716 10.2301 13.205 9.59737 13.9698 9.59737C14.7346 9.59737 15.3679 10.2301 15.3679 10.994C15.3679 11.758 14.7346 12.3907 13.9698 12.3907Z" fill="#FFCD00"/>
</g>
<defs>
<clipPath id="clip0_898_1518">
<rect width="22" height="22" fill="white"/>
</clipPath>
</defs>
</svg>
