<svg width="46" height="46" viewBox="0 0 46 46" fill="none" xmlns="http://www.w3.org/2000/svg">
<rect width="46" height="46" rx="12" fill="#17BDDE"/>
<path d="M23 8C14.729 8 8 14.729 8 23V29.2145C8 30.7505 9.3455 32 11 32H12.5C12.8978 32 13.2794 31.842 13.5607 31.5607C13.842 31.2794 14 30.8978 14 30.5V22.7855C14 22.3877 13.842 22.0061 13.5607 21.7248C13.2794 21.4435 12.8978 21.2855 12.5 21.2855H11.138C11.972 15.4805 16.967 11 23 11C29.033 11 34.028 15.4805 34.862 21.2855H33.5C33.1022 21.2855 32.7206 21.4435 32.4393 21.7248C32.158 22.0061 32 22.3877 32 22.7855V32C32 33.6545 30.6545 35 29 35H26V33.5H20V38H29C32.309 38 35 35.309 35 32C36.6545 32 38 30.7505 38 29.2145V23C38 14.729 31.271 8 23 8Z" fill="white"/>
</svg>
