<svg width="16" height="26" viewBox="0 0 16 26" fill="none" xmlns="http://www.w3.org/2000/svg">
<g clip-path="url(#clip0_898_12796)">
<path d="M12.6055 4.28861H15.2742C15.7046 4.28861 15.9998 3.97311 15.9998 3.61085C15.9998 3.2486 15.7046 2.93311 15.2742 2.93311H12.6055C12.1751 2.93311 11.8799 3.2486 11.8799 3.61085C11.8799 3.97311 12.1751 4.28861 12.6055 4.28861ZM12.6055 7.57221H15.2742C15.7046 7.57221 15.9998 7.2567 15.9998 6.89445C15.9998 6.5322 15.7046 6.2167 15.2742 6.2167H12.6055C12.1751 6.2167 11.8799 6.5322 11.8799 6.89445C11.8799 7.2567 12.1751 7.57221 12.6055 7.57221ZM12.6055 10.8558H15.2742C15.7046 10.8558 15.9998 10.5403 15.9998 10.178C15.9998 9.8158 15.7046 9.48861 15.2742 9.48861H12.6055C12.1751 9.48861 11.8799 9.8158 11.8799 10.178C11.8799 10.5403 12.1751 10.8558 12.6055 10.8558ZM12.6055 14.1394H15.2742C15.7046 14.1394 15.9998 13.8239 15.9998 13.4616C15.9998 13.0877 15.7046 12.7722 15.2742 12.7722H12.6055C12.1751 12.7722 11.8799 13.0877 11.8799 13.4616C11.8799 13.8239 12.1751 14.1394 12.6055 14.1394Z" fill="#17BDDE"/>
<path d="M6.44427 25.965C9.98616 25.965 12.8517 23.2306 12.8517 19.8652C12.8517 18.089 12.0891 16.5348 10.6134 15.2728C10.3551 15.0508 10.2936 14.9105 10.2936 14.56V3.9964C10.2936 1.62427 8.73174 0 6.44427 0C4.1322 0 2.55803 1.62427 2.55803 3.9964V14.56C2.55803 14.9105 2.50883 15.0508 2.23827 15.2728C0.774788 16.5348 0 18.089 0 19.8652C0 23.2306 2.87779 25.965 6.44427 25.965ZM6.44427 24.2705C3.87395 24.2705 1.80784 22.2841 1.80784 19.8652C1.80784 18.4045 2.53343 17.084 3.83705 16.2544C4.21829 16.009 4.36587 15.7869 4.36587 15.3079V4.06651C4.36587 2.66428 5.21445 1.71776 6.44427 1.71776C7.6495 1.71776 8.49808 2.66428 8.49808 4.06651V15.3079C8.49808 15.7869 8.64565 16.009 9.0269 16.2544C10.3305 17.084 11.0562 18.4045 11.0562 19.8652C11.0562 22.2841 8.97771 24.2705 6.44427 24.2705Z" fill="#17BDDE"/>
<path d="M6.43223 22.6931C8.08019 22.6931 9.40839 21.4311 9.40839 19.8537C9.40839 18.7552 8.75659 17.8554 7.80963 17.3647C7.41609 17.1659 7.2808 17.0257 7.2808 16.4532V10.2015C7.2808 9.64057 6.89956 9.27832 6.43223 9.27832C5.9526 9.27832 5.58364 9.64057 5.58364 10.2015V16.4532C5.58364 17.0257 5.44837 17.1659 5.05483 17.3647C4.10786 17.8554 3.45605 18.7552 3.45605 19.8537C3.45605 21.4311 4.78426 22.6931 6.43223 22.6931Z" fill="#17BDDE"/>
</g>
<defs>
<clipPath id="clip0_898_12796">
<rect width="16" height="26" fill="white"/>
</clipPath>
</defs>
</svg>
